<svg width="479" height="479" viewBox="0 0 479 479" fill="none" xmlns="http://www.w3.org/2000/svg">
<g clip-path="url(#clip0_2033_28)">
<path d="M382.5 9.56201H95.625L0 162.562V172.124V468.562H478.125V172.125V162.563L382.5 9.56201ZM107.1 28.688H371.025L455.174 162.563H22.95L107.1 28.688ZM459 449.438H19.125V181.688H459V449.438Z" fill="white"/>
<path d="M191.25 353.812H286.875C307.912 353.812 325.125 336.599 325.125 315.562C325.125 294.525 307.912 277.312 286.875 277.312H191.25C170.212 277.312 153 294.525 153 315.562C153 336.599 170.212 353.812 191.25 353.812ZM191.25 296.438H286.875C298.35 296.438 306 304.088 306 315.563C306 327.038 298.35 334.688 286.875 334.688H191.25C179.775 334.688 172.125 327.038 172.125 315.563C172.125 304.088 179.775 296.438 191.25 296.438Z" fill="white"/>
</g>
<defs>
<clipPath id="clip0_2033_28">
<rect width="478.125" height="478.125" fill="white"/>
</clipPath>
</defs>
</svg>
