<svg width="479" height="459" viewBox="0 0 479 459" fill="none" xmlns="http://www.w3.org/2000/svg">
<path d="M382.5 0H95.625L0 153V162.562V459H478.125V162.563V153.001L382.5 0ZM107.1 19.126H371.025L455.174 153.001H22.95L107.1 19.126ZM459 439.876H19.125V172.126H459V439.876Z" fill="#8A8F9E"/>
<path d="M191.25 344.25H286.875C307.912 344.25 325.125 327.037 325.125 306C325.125 284.963 307.912 267.75 286.875 267.75H191.25C170.212 267.75 153 284.963 153 306C153 327.037 170.212 344.25 191.25 344.25ZM191.25 286.876H286.875C298.35 286.876 306 294.526 306 306.001C306 317.476 298.35 325.126 286.875 325.126H191.25C179.775 325.126 172.125 317.476 172.125 306.001C172.125 294.526 179.775 286.876 191.25 286.876Z" fill="#8A8F9E"/>
</svg>
