<svg width="24" height="24" viewBox="0 0 24 24" fill="none" xmlns="http://www.w3.org/2000/svg">
<path d="M12.0001 13.935L20.4266 9.5L12.0001 5.06502L3.57365 9.5L12.0001 13.935ZM2.26723 9.05754L11.7672 4.05754C11.913 3.98082 12.0872 3.98082 12.233 4.05754L21.733 9.05754C22.0891 9.245 22.0891 9.755 21.733 9.94246L12.233 14.9425C12.0872 15.0192 11.913 15.0192 11.7672 14.9425L2.26723 9.94246C1.91106 9.755 1.91106 9.245 2.26723 9.05754ZM12.0001 16.935L21.2672 12.0575C21.5116 11.9289 21.8139 12.0228 21.9426 12.2671C22.0712 12.5115 21.9773 12.8138 21.733 12.9425L12.233 17.9425C12.0872 18.0192 11.913 18.0192 11.7672 17.9425L2.26723 12.9425C2.02286 12.8138 1.92903 12.5115 2.05764 12.2671C2.18625 12.0228 2.48861 11.9289 2.73297 12.0575L12.0001 16.935ZM12.0001 19.935L21.2672 15.0575C21.5116 14.9289 21.8139 15.0228 21.9426 15.2671C22.0712 15.5115 21.9773 15.8138 21.733 15.9425L12.233 20.9425C12.0872 21.0192 11.913 21.0192 11.7672 20.9425L2.26723 15.9425C2.02286 15.8138 1.92903 15.5115 2.05764 15.2671C2.18625 15.0228 2.48861 14.9289 2.73297 15.0575L12.0001 19.935Z" fill="#FBB900"/>
</svg>
