<svg width="26" height="24" viewBox="0 0 26 24" fill="none" xmlns="http://www.w3.org/2000/svg">
<path d="M19.7143 24.0025H6.31431C5.20503 24.0101 4.11372 23.7224 3.15243 23.1688C2.19113 22.6152 1.39449 21.8158 0.844305 20.8525C0.291441 19.9093 0 18.8358 0 17.7425C0 16.6492 0.291441 15.5757 0.844305 14.6325L7.57431 3.12252C8.12935 2.17225 8.92364 1.38395 9.87808 0.836112C10.8325 0.288271 11.9138 0 13.0143 0C14.1148 0 15.1961 0.288271 16.1505 0.836112C17.105 1.38395 17.8993 2.17225 18.4543 3.12252L25.1643 14.6325C25.7172 15.5757 26.0086 16.6492 26.0086 17.7425C26.0086 18.8358 25.7172 19.9093 25.1643 20.8525C24.6158 21.8128 23.8223 22.6103 22.8648 23.1637C21.9074 23.7171 20.8202 24.0066 19.7143 24.0025ZM13.0143 2.00252C12.2636 1.9958 11.5246 2.18852 10.8727 2.561C10.2209 2.93347 9.67965 3.47233 9.30431 4.12252L2.5943 15.6425C2.21883 16.2805 2.02082 17.0073 2.02082 17.7475C2.02082 18.4878 2.21883 19.2146 2.5943 19.8525C2.96582 20.5105 3.5068 21.0569 4.161 21.435C4.8152 21.8131 5.55873 22.0091 6.31431 22.0025H19.7143C20.4716 22.0109 21.2172 21.8157 21.8733 21.4376C22.5294 21.0594 23.072 20.512 23.4443 19.8525C23.8198 19.2146 24.0178 18.4878 24.0178 17.7475C24.0178 17.0073 23.8198 16.2805 23.4443 15.6425L16.7243 4.12252C16.349 3.47233 15.8077 2.93347 15.1559 2.561C14.5041 2.18852 13.765 1.9958 13.0143 2.00252Z" fill="#C9A84C"/>
<path d="M13.0142 8.00246C12.9287 8.00167 12.8442 8.0212 12.7677 8.05945C12.6912 8.0977 12.6249 8.15357 12.5742 8.22246C12.5193 8.28808 12.4815 8.36621 12.4641 8.44994C12.4466 8.53367 12.4501 8.6204 12.4742 8.70246L13.0142 10.8825L13.5542 8.70246C13.5783 8.6204 13.5817 8.53367 13.5643 8.44994C13.5469 8.36621 13.509 8.28808 13.4542 8.22246C13.4035 8.15357 13.3372 8.0977 13.2607 8.05945C13.1842 8.0212 13.0997 8.00167 13.0142 8.00246Z" fill="#C9A84C"/>
<path d="M15.0143 7.00253C14.7745 6.70238 14.4702 6.46006 14.1239 6.29353C13.7777 6.127 13.3985 6.04053 13.0143 6.04053C12.6301 6.04053 12.2508 6.127 11.9046 6.29353C11.5584 6.46006 11.2541 6.70238 11.0143 7.00253C10.7727 7.30674 10.6054 7.66304 10.5256 8.04319C10.4457 8.42333 10.4555 8.81685 10.5543 9.19253L12.0143 15.2425C12.0685 15.4588 12.1934 15.6507 12.3691 15.7878C12.5448 15.9249 12.7614 15.9994 12.9843 15.9994C13.2072 15.9994 13.4237 15.9249 13.5995 15.7878C13.7752 15.6507 13.9001 15.4588 13.9543 15.2425L15.4643 9.18253C15.5627 8.80909 15.5734 8.41791 15.4953 8.03968C15.4172 7.66145 15.2526 7.30645 15.0143 7.00253ZM13.5543 8.70253L13.0143 10.8825L12.4743 8.70253C12.4502 8.62047 12.4467 8.53373 12.4641 8.45C12.4816 8.36628 12.5194 8.28814 12.5743 8.22253C12.6255 8.15422 12.6919 8.09878 12.7683 8.06059C12.8447 8.02241 12.9289 8.00253 13.0143 8.00253C13.0997 8.00253 13.1839 8.02241 13.2602 8.06059C13.3366 8.09878 13.403 8.15422 13.4543 8.22253C13.5091 8.28814 13.547 8.36628 13.5644 8.45C13.5818 8.53373 13.5784 8.62047 13.5543 8.70253Z" fill="#C9A84C"/>
<path d="M13.0142 20.0024C13.8426 20.0024 14.5142 19.3309 14.5142 18.5024C14.5142 17.674 13.8426 17.0024 13.0142 17.0024C12.1857 17.0024 11.5142 17.674 11.5142 18.5024C11.5142 19.3309 12.1857 20.0024 13.0142 20.0024Z" fill="#C9A84C"/>
</svg>
