<svg width="344" height="484" viewBox="0 0 344 484" fill="none" xmlns="http://www.w3.org/2000/svg">
<path d="M171.7 114.467C129.767 114.467 95.767 148.467 95.767 190.4C95.767 232.333 129.767 266.333 171.7 266.333C213.633 266.333 247.633 232.333 247.633 190.4C247.633 148.467 213.633 114.467 171.7 114.467ZM171.7 232.333C148.75 232.333 129.767 213.633 129.767 190.4C129.767 167.167 148.467 148.467 171.7 148.467C194.933 148.467 213.633 167.167 213.633 190.4C213.633 213.633 194.65 232.333 171.7 232.333Z" fill="#C9A84C"/>
<path d="M297.783 56.667C274.833 30.883 233.183 0 166.6 0C57.233 0 0 88.967 0 176.8C0 291.833 157.25 469.483 164.05 477.133C167.167 480.816 171.7 483.083 176.517 483.083H176.8C181.617 483.083 185.867 480.816 189.267 477.416C190.967 475.716 228.084 435.483 265.767 379.099C317.334 302.032 343.4 233.749 343.4 176.516C343.4 132.883 326.683 89.25 297.783 56.667ZM177.083 439.45C140.25 395.25 34.283 261.233 34.283 176.517C34.283 107.95 75.933 34 166.883 34C259.533 34 309.4 107.383 309.4 176.517C309.4 276.25 212.216 398.367 177.083 439.45Z" fill="#C9A84C"/>
</svg>
