<svg width="9" height="7" viewBox="0 0 9 7" fill="none" xmlns="http://www.w3.org/2000/svg">
<path d="M7.63578 0H1.33304C1.16712 0 1.03332 0.134173 1.03332 0.300095C1.03332 0.466016 1.16712 0.599433 1.33304 0.599433H7.63578C8.05606 0.599433 8.39811 0.942236 8.39811 1.36252V1.39162H1.33304C1.16712 1.39162 1.03332 1.52504 1.03332 1.69096C1.03332 1.8565 1.16712 1.99068 1.33304 1.99068H8.39811V5.23616C8.39811 5.65606 8.05606 5.99887 7.63578 5.99887H1.36214C0.941858 5.99887 0.599811 5.65606 0.599811 5.23616V1.33266C0.599811 1.16674 0.465638 1.03257 0.300095 1.03257C0.134173 1.03257 0 1.16674 0 1.33266V5.23616C0 5.98753 0.61115 6.5983 1.36214 6.5983H7.63578C8.38677 6.5983 8.9983 5.98753 8.9983 5.23616V1.36252C8.9983 0.61115 8.38677 0 7.63578 0ZM7.46079 4.28145C7.62633 4.28145 7.76088 4.14728 7.76088 3.98173C7.76088 3.81543 7.62633 3.68202 7.46079 3.68202H4.48441C4.31849 3.68202 4.18431 3.81543 4.18431 3.98173C4.18431 4.14728 4.31849 4.28145 4.48441 4.28145H7.46079ZM1.77978 3.51685H2.70954V4.44624H1.77978V3.51685ZM3.00926 5.04643C3.17518 5.04643 3.30935 4.91225 3.30935 4.74595V3.21676C3.30935 3.05121 3.17518 2.91666 3.00926 2.91666H1.48006C1.31414 2.91666 1.18035 3.05121 1.18035 3.21676V4.74595C1.18035 4.91225 1.31414 5.04643 1.48006 5.04643H3.00926Z" fill="#C9A84C"/>
</svg>
