<svg width="2878" height="954" viewBox="0 0 2878 954" fill="none" xmlns="http://www.w3.org/2000/svg">
<path d="M723.785 2C629.652 11.4667 547.252 45.6 482.452 101.867C456.985 124.133 428.185 153.6 361.119 226.667C352.719 235.867 342.452 246.933 338.319 251.333C255.119 340.667 169.652 442.8 144.719 482.4C134.452 498.8 122.452 524.933 117.785 540.933L116.985 544H181.385H245.919L263.119 534.933C280.452 525.867 294.852 518.267 352.452 488.267C387.119 470.267 439.919 442.667 517.252 402.133L570.185 374.4L573.519 364.933C575.385 359.6 580.452 346.133 584.852 334.933C590.852 319.6 592.319 314.667 590.719 315.333C589.519 315.733 577.919 321.733 565.119 328.533C552.319 335.333 530.052 347.2 515.785 354.8L489.785 368.667L392.185 369.067C338.452 369.2 294.452 368.933 294.452 368.267C294.452 367.067 306.452 353.333 319.652 339.333C323.785 334.933 333.519 324.4 341.119 316C387.919 264 472.452 173.333 488.852 157.467C494.585 152.133 504.319 142.933 510.719 137.2L522.452 126.667H617.119C669.119 126.667 711.785 127.067 711.785 127.467C711.785 128 707.652 138.933 702.585 151.867C694.319 172.533 689.519 185.2 671.785 232C669.385 238.267 661.519 258.933 654.185 278C646.985 297.067 637.785 321.333 633.785 332C629.919 342.667 623.252 360 619.119 370.667C610.585 392.4 569.385 501.467 567.785 506.667C567.119 508.533 560.585 525.867 553.119 545.333C545.785 564.8 534.319 594.8 527.785 612C521.385 629.2 509.385 660.933 501.252 682.533C493.119 704.133 486.452 722.267 486.452 722.933C486.452 723.467 522.319 723.867 566.052 723.733L645.519 723.333L655.385 697.333C660.852 683.067 672.319 652.4 680.985 629.333C695.519 590.667 699.519 580.133 712.719 546C715.252 539.333 720.585 525.333 724.452 514.667C728.452 504 738.852 476.133 747.785 452.667C765.785 405.333 792.319 335.067 803.385 305.333C807.385 294.667 812.185 281.6 814.052 276.4L817.385 266.667L867.519 266.4L917.519 266L921.519 256.667C923.652 251.467 927.652 241.067 930.452 233.333C950.852 178.133 977.252 108.133 982.985 94.6667L986.052 87.3333L1199.39 86.9333L1412.72 86.6667L1414.85 80.2667C1417.12 73.4667 1433.12 28.6667 1439.52 10.9333L1443.52 -1.12589e-06L1092.05 0.133332C820.719 0.266666 736.585 0.666666 723.785 2Z" fill="#1A3A6E"/>
<path d="M1017.39 130.267C1016.59 132.4 1012.59 142.667 1008.45 153.333C990.852 198.667 972.985 247.2 973.518 248.533C973.918 249.467 988.985 273.733 1007.25 302.667C1025.39 331.6 1042.99 359.867 1046.45 365.333C1049.92 370.8 1056.32 381.067 1060.72 388C1065.12 394.933 1075.25 411.2 1083.39 424C1091.39 436.8 1105.39 459.067 1114.45 473.333C1123.52 487.6 1133.65 503.867 1137.12 509.333C1144.05 520.4 1167.52 557.733 1182.45 581.333C1187.79 589.733 1202.59 613.467 1215.52 634C1228.32 654.533 1241.92 676.133 1245.65 682C1249.52 687.867 1256.99 699.733 1262.45 708.4L1272.45 724L1334.99 723.733L1397.65 723.333L1400.19 716C1401.65 712 1408.72 691.2 1416.05 670C1423.25 648.667 1430.99 626.533 1433.12 620.667C1437.52 608.667 1460.99 540.533 1469.79 514C1472.99 504.4 1481.65 478.933 1489.12 457.333C1496.59 435.733 1507.12 405.067 1512.45 389.333C1533.25 328 1534.99 323.333 1546.99 298C1557.12 276.8 1574.85 247.333 1588.59 229.067C1602.85 210 1640.45 172.933 1660.45 158.133C1669.25 151.733 1684.32 142 1693.79 136.533L1711.12 126.667L1578.45 126.933L1445.79 127.333L1440.85 141.333C1438.19 149.067 1430.19 171.867 1423.12 192C1416.05 212.133 1406.45 239.733 1401.79 253.333C1391.52 283.067 1348.05 406.933 1329.12 460.667C1321.52 481.867 1314.99 499.867 1314.45 500.4C1313.92 501.067 1310.32 496.267 1306.32 489.733C1299.79 478.8 1290.45 463.867 1251.65 402.667C1243.12 389.067 1231.65 370.8 1226.19 362C1214.72 343.6 1190.72 305.333 1132.45 212.667C1109.92 176.667 1088.59 142.667 1085.25 137.067L1079.12 126.8L1048.85 126.667H1018.72L1017.39 130.267Z" fill="#1A3A6E"/>
<path d="M1871.78 128.8C1756.05 140.133 1669.12 190.533 1611.12 279.867C1584.58 320.8 1567.65 367.467 1559.65 422C1556.72 441.867 1557.38 491.6 1560.85 512.267C1569.12 561.2 1586.05 599.733 1614.18 633.333C1651.92 678.533 1715.65 710.667 1785.78 719.867C1791.65 720.667 1798.85 721.6 1801.78 722C1815.65 723.733 1865.65 724.267 1883.12 722.8C1939.65 717.867 1990.58 704.8 2030.45 684.933L2041.78 679.333L2045.25 665.333C2050.05 646.267 2064.05 592.533 2069.78 571.333C2080.45 531.867 2087.78 503.867 2087.78 502.533C2087.78 502.133 2079.52 507.2 2069.38 513.867C2027.65 541.467 1979.38 563.6 1939.52 573.333C1866.45 591.2 1799.52 586 1758.45 559.2C1720.85 534.8 1703.25 486.133 1710.98 428.667C1716.85 386.133 1733.92 350.8 1762.98 321.867C1794.18 290.8 1832.05 273.6 1881.78 268C1888.72 267.2 1935.52 266.667 1992.98 266.667H2092.32L2105.78 253.6C2127.92 232.133 2195.38 167.467 2227.25 136.933L2238.18 126.667L2063.92 126.8C1929.92 126.933 1885.65 127.467 1871.78 128.8Z" fill="#1A3A6E"/>
<path d="M2367.12 128.133C2331.12 131.866 2293.52 146.533 2266.45 167.333C2232.85 193.2 2207.39 232.666 2192.72 281.333C2187.79 297.333 2175.79 343.066 2175.79 345.333C2175.79 346.266 2202.59 346.533 2255.25 346.4L2334.72 346L2338.99 330.666C2347.39 300.4 2358.19 284.8 2377.39 275.466C2396.05 266.4 2390.32 266.666 2564.05 266.666L2720.45 266.533L2745.92 244.266C2787.12 208.133 2805.39 192 2813.25 184.8C2824.32 174.533 2841.12 159.6 2847.12 154.533C2850.05 152.133 2857.92 145.333 2864.45 139.466C2871.12 133.6 2876.99 128.266 2877.79 127.733C2879.39 126.266 2380.85 126.666 2367.12 128.133Z" fill="#1A3A6E"/>
<path fill-rule="evenodd" clip-rule="evenodd" d="M2276 768C2316.5 767.5 2371 768.5 2432 767C2463.1 767 2526.5 767 2604 770C2598.5 793 2597 803 2595 808L2266.5 806.5C2268.5 797.5 2271.5 788.5 2276 768Z" fill="#C9A84C"/>
<path d="M2219.5 808C2161 808 2144 808 2060.5 806C2084.5 720.5 2148.5 577 2278.5 572.5L2219.5 808Z" fill="#C9A84C"/>
<path d="M1304 392.5C1275 345 1160.5 172 1138.5 129H1396L1304 392.5Z" fill="#C9A84C"/>
<path d="M942.452 327.6C937.785 340 928.318 364.4 921.385 382C914.452 399.6 907.652 416.933 906.452 420.667C905.118 424.267 896.985 445.333 888.452 467.333C871.652 510.8 845.785 578.267 844.852 581.2C844.452 582.8 836.452 583.067 796.318 582.8C758.318 582.667 747.918 582.933 746.852 584.267C746.052 585.2 741.518 596.533 736.718 609.333C731.785 622.133 725.518 638.667 722.718 646C719.918 653.333 712.585 672.267 706.585 688C700.585 703.733 695.118 718 694.451 719.733C693.651 721.467 693.118 723.067 693.118 723.333C693.118 723.733 751.518 724 822.985 724H952.852L956.585 714.267C958.585 709.067 962.185 699.6 964.585 693.333C966.985 687.067 974.052 667.867 980.452 650.667C986.718 633.467 996.052 608.267 1001.12 594.667C1033.52 507.067 1049.12 463.867 1049.12 461.867C1049.12 460.8 1042.05 448.667 1033.38 434.933C1024.72 421.2 1013.12 402.8 1007.78 394C1002.32 385.2 996.585 376.133 995.118 373.867C993.652 371.6 983.518 355.2 972.452 337.6C961.518 319.867 952.052 305.467 951.652 305.333C951.252 305.333 947.118 315.333 942.452 327.6Z" fill="#1A3A6E"/>
<path d="M2163.12 389.6C2162.85 390.533 2162.45 392.8 2162.05 394.667C2161.65 396.533 2158.32 409.6 2154.58 423.6C2150.85 437.733 2144.85 460.533 2141.25 474.267C2135.52 496.133 2113.38 579.867 2106.58 605.6C2105.25 610.667 2104.32 614.667 2104.45 614.667C2104.58 614.667 2111.25 608 2119.25 599.867C2153.52 565.067 2194.18 542.133 2240.98 531.333C2272.85 524 2273.65 524 2415.65 524H2547.12L2555.78 515.733C2593.38 480.133 2603.92 470.267 2621.12 454.667C2629.52 446.933 2641.25 436.133 2647.12 430.533C2652.98 425.067 2661.92 416.667 2667.12 411.867C2672.18 407.2 2680.05 399.867 2684.45 395.733L2692.45 388H2428.05C2217.78 388 2163.65 388.4 2163.12 389.6Z" fill="#1A3A6E"/>
<path d="M491.499 545.977C434.032 545.977 319.499 547.377 319.499 546.977C372.999 520.834 532.499 429.801 532.499 436.334L491.499 545.977Z" fill="#C9A84C"/>
<path d="M1507.52 544.4C1498.32 572.4 1461.78 677.067 1450.32 708.267C1447.52 716.267 1445.12 722.933 1445.12 723.333C1445.12 723.733 1492.05 724 1549.52 724H1653.78L1644.72 718.933C1594.98 691.6 1550.58 637.733 1529.12 578.667C1524.58 566.267 1515.78 533.067 1515.78 528.4C1515.78 521.867 1513.52 526.267 1507.52 544.4Z" fill="#1A3A6E"/>
<path d="M1213.5 723.977C1156.03 723.977 1001.5 724.377 1001.5 723.977C1020 679.5 1082 506.467 1082 513L1213.5 723.977Z" fill="#C9A84C"/>
<path d="M108.719 583.6C107.119 585.2 107.785 603.333 109.785 614.8C119.252 667.867 153.252 705.6 204.452 719.6L217.785 723.333H328.319H438.719L440.452 718.667C441.385 716.133 445.785 704.4 450.185 692.667C454.719 680.933 461.385 662.933 465.119 652.667C468.852 642.4 476.052 622.8 481.252 609.2C486.319 595.6 490.452 584 490.452 583.6C490.452 582.4 109.785 582.4 108.719 583.6Z" fill="#1A3A6E"/>
<path fill-rule="evenodd" clip-rule="evenodd" d="M2011.86 786.215C2012.11 785.499 2016.78 770.141 2017 769.5Z" fill="#C9A84C"/>
<path fill-rule="evenodd" clip-rule="evenodd" d="M71.4999 953C54.2143 953.221 0 952.039 0 951.955C109.744 864.939 265.449 837.468 378.063 817.6C401.925 813.39 423.853 809.521 442.999 805.5C643.499 781 750.999 779 941.499 772C1006 766 2000.5 766 2017 769.5C2015.25 774.632 2008.29 796.688 2004.49 808.428C2002.02 808.428 1993.66 808.429 1981.59 808.431C1928.54 808.439 1803.76 808.458 1791.71 808.428C1717.37 808.243 1626.09 808.015 1529.5 812C1172 816.5 551.998 826 300.499 953C272.482 952.356 236.312 952.505 185.453 952.715C153.718 952.846 116.263 953 71.4999 953Z" fill="#C9A84C"/>
</svg>
