<svg width="32" height="32" viewBox="0 0 32 32" fill="none" xmlns="http://www.w3.org/2000/svg">
<path fill-rule="evenodd" clip-rule="evenodd" d="M21.9971 14H8.99707C7.34007 14 5.99707 15.343 5.99707 17V26.916C5.99707 28.573 7.34007 29.916 8.99707 29.916C12.4601 29.916 19.5331 29.916 22.9971 29.916C24.6531 29.916 25.9971 28.573 25.9971 26.916V17C25.9971 15.694 25.1621 14.582 23.9971 14.171V9.959C23.9971 5.563 20.4331 2 16.0381 2H15.9561C11.5601 2 7.99707 5.563 7.99707 9.959C7.99707 10.312 7.99707 10.661 7.99707 11C7.99707 11.552 8.44507 12 8.99707 12C9.54807 12 9.99707 11.552 9.99707 11C9.99707 10.661 9.99707 10.312 9.99707 9.959C9.99707 6.668 12.6641 4 15.9561 4H16.0381C19.3291 4 21.9971 6.668 21.9971 9.959V14ZM23.9971 17V26.916C23.9971 27.468 23.5491 27.916 22.9971 27.916H8.99707C8.44407 27.916 7.99707 27.468 7.99707 26.916V17C7.99707 16.448 8.44407 16 8.99707 16H22.9971C23.5491 16 23.9971 16.448 23.9971 17Z" fill="#8A8F9E"/>
<path fill-rule="evenodd" clip-rule="evenodd" d="M14.9951 23.786V24.978C14.9951 25.53 15.4431 25.978 15.9951 25.978C16.5461 25.978 16.9951 25.53 16.9951 24.978V23.788C18.1601 23.376 18.9971 22.264 18.9971 20.958C18.9971 19.302 17.6521 17.958 15.9971 17.958C14.3411 17.958 12.9971 19.302 12.9971 20.958C12.9971 22.262 13.8311 23.374 14.9951 23.786ZM15.9971 19.958C16.5481 19.958 16.9971 20.406 16.9971 20.958C16.9971 21.51 16.5481 21.958 15.9971 21.958C15.4451 21.958 14.9971 21.51 14.9971 20.958C14.9971 20.406 15.4451 19.958 15.9971 19.958Z" fill="#8A8F9E"/>
</svg>
