<svg width="613" height="613" viewBox="0 0 613 613" fill="none" xmlns="http://www.w3.org/2000/svg">
<g clip-path="url(#clip0_2027_176)">
<path d="M237.927 0C106.555 0 0.0351562 106.52 0.0351562 237.893C0.0351562 369.266 106.555 475.786 237.928 475.786C288.446 475.786 335.296 460.029 373.807 433.189L373.835 433.161L550.267 609.594C553.541 612.868 558.747 612.952 562.106 609.594L609.657 562.043C612.931 558.769 612.763 553.34 609.629 550.205L433.223 373.8C460.063 335.261 475.82 288.41 475.82 237.893C475.82 106.52 369.3 0 237.927 0ZM237.927 419.811C137.452 419.811 56.0092 338.368 56.0092 237.893C56.0092 137.418 137.453 55.975 237.927 55.975C338.401 55.975 419.845 137.418 419.845 237.893C419.845 338.368 338.402 419.811 237.927 419.811Z" fill="white"/>
</g>
<defs>
<clipPath id="clip0_2027_176">
<rect width="612.08" height="612.08" fill="white"/>
</clipPath>
</defs>
</svg>
