<svg width="32" height="19" viewBox="0 0 32 19" fill="none" xmlns="http://www.w3.org/2000/svg">
<path d="M12.745 5.3999H9.41797V8.7189H12.745V5.3999Z" fill="#C9A84C"/>
<path d="M32 12.656H31.5C29.562 12.656 27.984 11.093 27.984 9.171C27.984 7.249 29.561 5.685 31.5 5.685H32V0H0V5.685H0.5C2.438 5.685 4.016 7.249 4.016 9.171C4.016 11.093 2.439 12.656 0.5 12.656H0V18.342H32V12.656ZM8.418 4.4H13.745V9.719H8.418V4.4ZM23.418 13.582H7.834V12.582H23.418V13.582ZM23.418 9.507H16.996V8.507H23.418V9.507ZM23.418 5.431H16.996V4.431H23.418V5.431Z" fill="#C9A84C"/>
</svg>
